
<svg width="64" height="64" xmlns="http://www.w3.org/2000/svg">

 <g>
  <title>background</title>
  <rect fill="none" id="canvas_background" height="66" width="66" y="-1" x="-1"/>
 </g>
 <g>
  <title>Layer 1</title>
  <g stroke="null" id="svg_1">
   <path stroke="null" id="svg_2" d="m54.5625,3.5l-45.125,0c-3.325,0 -5.9375,2.6125 -5.9375,5.9375l0,45.125c0,3.325 2.6125,5.9375 5.9375,5.9375l45.125,0c3.325,0 5.9375,-2.6125 5.9375,-5.9375l0,-45.125c0,-3.325 -2.6125,-5.9375 -5.9375,-5.9375zm3.5625,51.0625c0,2.01875 -1.54375,3.5625 -3.5625,3.5625l-45.125,0c-2.01875,0 -3.5625,-1.54375 -3.5625,-3.5625l0,-34.4375l40.85,0c0.7125,0 1.1875,-0.475 1.1875,-1.1875c0,-0.7125 -0.475,-1.1875 -1.1875,-1.1875l-40.85,0l0,-8.3125c0,-2.01875 1.54375,-3.5625 3.5625,-3.5625l45.125,0c2.01875,0 3.5625,1.54375 3.5625,3.5625l0,45.125z" fill="#000000"/>
   <path stroke="null" id="svg_3" d="m12.16875,8.36875c-1.9,0 -3.325,1.54375 -3.325,3.44375c0,1.9 1.54375,3.44375 3.44375,3.44375s3.44375,-1.54375 3.44375,-3.44375c-0.11875,-1.9 -1.6625,-3.44375 -3.5625,-3.44375zm0,4.39375c-0.59375,0 -0.95,-0.35625 -0.95,-0.95c0,-0.59375 0.35625,-1.06875 0.95,-1.06875c0.59375,0 1.06875,0.475 1.06875,1.06875c0,0.59375 -0.475,0.95 -1.06875,0.95z" fill="#000000"/>
   <path stroke="null" id="svg_4" d="m20.125,8.36875c-1.9,0 -3.44375,1.54375 -3.44375,3.44375c0,1.9 1.54375,3.44375 3.44375,3.44375s3.44375,-1.54375 3.44375,-3.44375c-0.11875,-1.9 -1.6625,-3.44375 -3.44375,-3.44375zm0,4.39375c-0.59375,0 -1.06875,-0.475 -1.06875,-1.06875c0,-0.59375 0.475,-1.06875 1.06875,-1.06875c0.59375,0 1.06875,0.475 1.06875,1.06875c-0.11875,0.7125 -0.59375,1.06875 -1.06875,1.06875z" fill="#000000"/>
   <path stroke="null" id="svg_5" d="m27.9625,8.36875c-1.9,0 -3.44375,1.54375 -3.44375,3.44375c0,1.9 1.54375,3.44375 3.44375,3.44375s3.44375,-1.54375 3.44375,-3.44375c0,-1.9 -1.54375,-3.44375 -3.44375,-3.44375zm0,4.39375c-0.59375,0 -1.06875,-0.475 -1.06875,-1.06875c0,-0.59375 0.475,-1.06875 1.06875,-1.06875c0.59375,0.11875 1.06875,0.59375 1.06875,1.1875c0,0.59375 -0.475,0.95 -1.06875,0.95z" fill="#000000"/>
   <path stroke="null" id="svg_6" d="m53.96875,17.75l-3.20625,0c-0.7125,0 -1.1875,0.475 -1.1875,1.1875c0,0.7125 0.475,1.1875 1.1875,1.1875l3.20625,0c0.7125,0 1.1875,-0.475 1.1875,-1.1875c0,-0.7125 -0.59375,-1.1875 -1.1875,-1.1875z" fill="#000000"/>
   <path stroke="null" id="svg_7" d="m43.1625,23.925c-0.7125,0 -1.1875,0.475 -1.1875,1.1875l0,27.90625c0,0.7125 0.475,1.1875 1.1875,1.1875c0.7125,0 1.1875,-0.475 1.1875,-1.1875l0,-27.90625c0,-0.7125 -0.475,-1.1875 -1.1875,-1.1875z" fill="#000000"/>
   <path stroke="null" id="svg_8" d="m38.4125,27.4875l-11.1625,0c-0.7125,0 -1.1875,0.475 -1.1875,1.1875l0,8.19375c0,0.7125 0.475,1.1875 1.1875,1.1875l11.1625,0c0.7125,0 1.1875,-0.475 1.1875,-1.1875l0,-8.19375c0,-0.59375 -0.59375,-1.1875 -1.1875,-1.1875zm-1.1875,8.19375l-8.7875,0l0,-5.81875l8.7875,0l0,5.81875z" fill="#000000"/>
   <path stroke="null" id="svg_9" d="m38.4125,40.075l-17.575,0c-0.7125,0 -1.1875,0.475 -1.1875,1.1875l0,8.19375c0,0.7125 0.475,1.1875 1.1875,1.1875l17.575,0c0.7125,0 1.1875,-0.475 1.1875,-1.1875l0,-8.19375c0,-0.7125 -0.59375,-1.1875 -1.1875,-1.1875zm-1.1875,8.19375l-15.2,0l0,-5.81875l15.2,0l0,5.81875z" fill="#000000"/>
  </g>
 </g>
</svg>