
<svg width="64" height="64" xmlns="http://www.w3.org/2000/svg">

 <g>
  <title>background</title>
  <rect fill="none" id="canvas_background" height="66" width="66" y="-1" x="-1"/>
 </g>
 <g>
  <title>Layer 1</title>
  <g stroke="null" id="svg_1">
   <polygon stroke="null" id="svg_2" points="30.170665740966797,46.16799736022949 30.170665740966797,44.07732963562012 21.770666122436523,52.44000053405762 23.8613338470459,52.44000053405762 "/>
   <polygon stroke="null" id="svg_3" points="33.8293342590332,44.18932914733887 33.8293342590332,46.27999687194824 39.95199966430664,52.44000053405762 42.005332946777344,52.44000053405762 "/>
   <path stroke="null" id="svg_4" d="m32.746667,36.573331c0.448,-0.112 0.896,-0.373333 1.232,-0.709333l2.576,-2.576c1.082667,-1.082667 1.082667,-2.837333 0,-3.92c-0.074667,-0.074667 -0.149333,-0.149333 -0.224,-0.224l0.224,-0.224c1.082667,-1.082667 1.082667,-2.837333 0,-3.92c-0.074667,-0.074667 -0.149333,-0.149333 -0.224,-0.224l0.224,-0.224c1.082667,-1.082667 1.082667,-2.837333 0,-3.92c-0.074667,-0.074667 -0.149333,-0.149333 -0.224,-0.224l0.224,-0.224c1.082667,-1.082667 1.082667,-2.837333 0,-3.92c-0.186667,-0.186667 -0.373333,-0.336 -0.597333,-0.448l0,-4.256l-1.456,0l0,3.92c-0.634667,0.037333 -1.232,0.261333 -1.754667,0.709333l0,-4.629333l-1.493333,0l0,4.629333c-0.485333,-0.448 -1.12,-0.672 -1.754667,-0.709333l0,-3.92l-1.456,0l0,4.256c-0.224,0.112 -0.410667,0.261333 -0.597333,0.448c-1.082667,1.082667 -1.082667,2.837333 0,3.92l0.224,0.224c-0.074667,0.074667 -0.149333,0.149333 -0.224,0.224c-1.082667,1.082667 -1.082667,2.837333 0,3.92l0.224,0.224c-0.074667,0.074667 -0.149333,0.149333 -0.224,0.224c-1.082667,1.082667 -1.082667,2.837333 0,3.92l0.224,0.224c-0.074667,0.074667 -0.149333,0.149333 -0.224,0.224c-1.082667,1.082667 -1.082667,2.837333 0,3.92l2.576,2.576c0.336,0.336 0.746667,0.597333 1.232,0.709333l0,15.866667l1.493333,0l0,-15.866667zm2.762667,-13.066667l-0.672,0.672c-0.784,-0.074667 -1.605333,0.186667 -2.202667,0.784l-0.634667,0.672l-0.634667,-0.634667c-0.149333,-0.149333 -0.336,-0.298667 -0.522667,-0.410667c0.074667,-0.112 0.149333,-0.224 0.224,-0.336l2.576,-2.576c0.261333,-0.261333 0.597333,-0.373333 0.933333,-0.373333s0.672,0.112 0.933333,0.373333c0.485333,0.485333 0.485333,1.306667 0,1.829333zm0,4.368l-0.672,0.672c-0.784,-0.074667 -1.605333,0.186667 -2.202667,0.784l-0.634667,0.634667l-0.634667,-0.634667c-0.149333,-0.149333 -0.336,-0.298667 -0.522667,-0.410667c0.074667,-0.112 0.149333,-0.224 0.224,-0.336l2.576,-2.576c0.261333,-0.261333 0.597333,-0.373333 0.933333,-0.373333s0.672,0.112 0.933333,0.373333c0.485333,0.522667 0.485333,1.344 0,1.866667zm-1.829333,-10.565333c0.522667,-0.522667 1.344,-0.522667 1.829333,0c0.522667,0.522667 0.522667,1.344 0,1.829333l-0.672,0.672c-0.784,-0.074667 -1.605333,0.186667 -2.202667,0.784l-0.634667,0.672l-0.634667,-0.634667c-0.149333,-0.149333 -0.336,-0.298667 -0.522667,-0.410667c0.074667,-0.112 0.149333,-0.224 0.224,-0.336l2.613333,-2.576zm-5.189333,0c0.261333,-0.261333 0.597333,-0.373333 0.933333,-0.373333c0.336,0 0.672,0.112 0.933333,0.373333l0.634667,0.634667l-0.933333,0.933333c-0.298667,0.298667 -0.485333,0.634667 -0.634667,0.970667c-0.074667,0 -0.149333,0 -0.224,0l-0.672,-0.672c-0.522667,-0.522667 -0.522667,-1.344 -0.037333,-1.866667zm0,4.368c0.261333,-0.261333 0.597333,-0.373333 0.933333,-0.373333c0.336,0 0.672,0.112 0.933333,0.373333l0.634667,0.634667l-0.933333,0.933333c-0.298667,0.298667 -0.485333,0.634667 -0.634667,0.970667c-0.074667,0 -0.149333,0 -0.224,0l-0.672,-0.672c-0.522667,-0.56 -0.522667,-1.381333 -0.037333,-1.866667zm0,4.368c0.261333,-0.261333 0.597333,-0.373333 0.933333,-0.373333c0.336,0 0.672,0.112 0.933333,0.373333l0.634667,0.634667l-0.933333,0.933333c-0.298667,0.298667 -0.485333,0.634667 -0.634667,0.970667c-0.074667,0 -0.149333,0 -0.224,0l-0.672,-0.672c-0.522667,-0.56 -0.522667,-1.381333 -0.037333,-1.866667zm0.858667,7.056l-0.858667,-0.858667c-0.522667,-0.522667 -0.522667,-1.344 0,-1.829333c0.261333,-0.261333 0.597333,-0.373333 0.933333,-0.373333c0.336,0 0.672,0.112 0.933333,0.373333l0.634667,0.634667l-0.933333,0.933333c-0.336,0.298667 -0.56,0.672 -0.709333,1.12zm1.717333,1.717333c-0.522667,-0.522667 -0.522667,-1.344 0,-1.829333l2.576,-2.576c0.261333,-0.261333 0.597333,-0.373333 0.933333,-0.373333s0.672,0.112 0.933333,0.373333c0.522667,0.522667 0.522667,1.344 0,1.829333l-2.576,2.576c-0.522667,0.485333 -1.344,0.485333 -1.866667,0z"/>
   <path stroke="null" id="svg_5" d="m22.592,36.685331c0.485333,0 0.970667,-0.149333 1.381333,-0.373333l6.197333,6.272l0,-2.090667l-5.189333,-5.226667c0.224,-0.410667 0.373333,-0.858667 0.373333,-1.381333l0,-3.658667c0,-1.530667 -1.232,-2.762667 -2.762667,-2.762667c-0.112,0 -0.224,0 -0.298667,0.037333l0,-0.336c0,-1.530667 -1.232,-2.762667 -2.762667,-2.762667c-0.112,0 -0.224,0 -0.298667,0.037333l0,-0.336c0,-1.530667 -1.232,-2.762667 -2.762667,-2.762667c-0.112,0 -0.224,0 -0.298667,0.037333l0,-0.336c0,-1.530667 -1.232,-2.762667 -2.762667,-2.762667c-0.261333,0 -0.485333,0.037333 -0.746667,0.112l-3.061333,-3.061333l-1.045333,1.045333l2.762667,2.762667c-0.410667,0.448 -0.709333,1.045333 -0.746667,1.717333l-3.248,-3.248l-1.045333,1.045333l3.248,3.248c-0.672,0.037333 -1.269333,0.298667 -1.717333,0.746667l-2.762667,-2.762667l-1.045333,1.045333l3.024,3.024c-0.074667,0.224 -0.112,0.485333 -0.112,0.746667c0,1.530667 1.232,2.762667 2.762667,2.762667l0.336,0c0,0.112 -0.037333,0.224 -0.037333,0.298667c0,1.530667 1.232,2.762667 2.762667,2.762667l0.336,0c0,0.112 -0.037333,0.224 -0.037333,0.298667c0,1.530667 1.232,2.762667 2.762667,2.762667l0.336,0c0,0.112 -0.037333,0.224 -0.037333,0.298667c0,1.530667 1.232,2.762667 2.762667,2.762667l3.733333,0l0,0.037333zm-11.946667,-10.714667l-0.970667,0c-0.709333,0 -1.306667,-0.597333 -1.306667,-1.306667c0,-0.709333 0.597333,-1.306667 1.306667,-1.306667l0.896,0l0,1.306667c0,0.410667 0.074667,0.784 0.261333,1.12c-0.074667,0.074667 -0.112,0.112 -0.186667,0.186667zm10.64,4.293333c0,-0.709333 0.597333,-1.306667 1.306667,-1.306667c0.709333,0 1.306667,0.597333 1.306667,1.306667l0,3.658667c0,0.709333 -0.597333,1.306667 -1.306667,1.306667c-0.709333,0 -1.306667,-0.597333 -1.306667,-1.306667l0,-3.658667zm-3.061333,-3.098667c0,-0.709333 0.597333,-1.306667 1.306667,-1.306667c0.709333,0 1.306667,0.597333 1.306667,1.306667l0,0.970667c-0.597333,0.522667 -0.970667,1.269333 -0.970667,2.128l0,0.896l-0.933333,0c-0.224,0 -0.448,0.037333 -0.672,0.074667c-0.037333,-0.112 -0.074667,-0.261333 -0.074667,-0.410667l0,-3.658667l0.037333,0zm-4.48,1.866667l-0.970667,0c-0.709333,0 -1.306667,-0.597333 -1.306667,-1.306667s0.597333,-1.306667 1.306667,-1.306667l0.896,0l0,1.344c0,0.410667 0.074667,0.784 0.261333,1.12c-0.074667,0.037333 -0.149333,0.112 -0.186667,0.149333zm-0.074667,-4.928l0,0.896l-0.896,0c-0.224,0 -0.448,0.037333 -0.672,0.074667c-0.037333,-0.112 -0.074667,-0.261333 -0.074667,-0.410667l0,-3.658667c0,-0.709333 0.597333,-1.306667 1.306667,-1.306667s1.306667,0.597333 1.306667,1.306667l0,0.970667c-0.597333,0.522667 -0.970667,1.269333 -0.970667,2.128zm3.173333,8.026667l-0.970667,0c-0.709333,0 -1.306667,-0.597333 -1.306667,-1.306667s0.597333,-1.306667 1.306667,-1.306667l0.896,0l0,1.306667c0,0.410667 0.074667,0.784 0.261333,1.12c-0.112,0.074667 -0.149333,0.112 -0.186667,0.186667zm-0.112,-4.965333l0,0.896l-0.896,0c-0.224,0 -0.448,0.037333 -0.672,0.074667c-0.037333,-0.112 -0.074667,-0.261333 -0.074667,-0.410667l0,-3.658667c0,-0.709333 0.597333,-1.306667 1.306667,-1.306667c0.709333,0 1.306667,0.597333 1.306667,1.306667l0,0.970667c-0.597333,0.522667 -0.970667,1.306667 -0.970667,2.128zm0.896,6.757333c0,-0.709333 0.597333,-1.306667 1.306667,-1.306667l0.896,0l0,1.306667c0,0.485333 0.112,0.896 0.336,1.306667l-1.232,0c-0.709333,0 -1.306667,-0.597333 -1.306667,-1.306667z"/>
   <path stroke="null" id="svg_6" d="m60,20.930664l-0.522667,-0.522667l-0.522667,-0.522667l-2.762667,2.762667c-0.448,-0.410667 -1.045333,-0.709333 -1.717333,-0.746667l3.248,-3.248l-1.045333,-1.045333l-3.248,3.248c-0.037333,-0.672 -0.298667,-1.269333 -0.746667,-1.717333l2.762667,-2.762667l-0.522667,-0.522667l-0.522667,-0.522667l-3.024,3.024c-0.224,-0.074667 -0.485333,-0.112 -0.746667,-0.112c-1.530667,0 -2.762667,1.232 -2.762667,2.762667l0,0.336c-0.112,0 -0.224,-0.037333 -0.298667,-0.037333c-1.530667,0 -2.762667,1.232 -2.762667,2.762667l0,0.336c-0.112,0 -0.224,-0.037333 -0.298667,-0.037333c-1.530667,0 -2.762667,1.232 -2.762667,2.762667l0,0.336c-0.112,0 -0.224,-0.037333 -0.298667,-0.037333c-1.530667,0 -2.762667,1.232 -2.762667,2.762667l0,3.658667c0,0.485333 0.149333,0.970667 0.373333,1.381333l-5.152,5.152l0,2.090667l6.197333,-6.16c0.410667,0.224 0.858667,0.373333 1.381333,0.373333l3.658667,0c1.530667,0 2.762667,-1.232 2.762667,-2.762667c0,-0.112 0,-0.224 -0.037333,-0.298667l0.336,0c1.530667,0 2.762667,-1.232 2.762667,-2.762667c0,-0.112 0,-0.224 -0.037333,-0.298667l0.336,0c1.530667,0 2.762667,-1.232 2.762667,-2.762667c0,-0.112 0,-0.224 -0.037333,-0.298667l0.336,0c1.530667,0 2.762667,-1.232 2.762667,-2.762667c0,-0.261333 -0.037333,-0.485333 -0.112,-0.746667l3.024,-3.061333zm-17.285333,12.992c0,0.709333 -0.597333,1.306667 -1.306667,1.306667c-0.709333,0 -1.306667,-0.597333 -1.306667,-1.306667l0,-3.658667c0,-0.709333 0.597333,-1.306667 1.306667,-1.306667c0.709333,0 1.306667,0.597333 1.306667,1.306667l0,3.658667zm0.485333,-5.786667l0,-0.970667c0,-0.709333 0.597333,-1.306667 1.306667,-1.306667s1.306667,0.597333 1.306667,1.306667l0,3.658667c0,0.149333 -0.037333,0.261333 -0.074667,0.410667c-0.224,-0.037333 -0.448,-0.074667 -0.672,-0.074667l-0.896,0l0,-0.896c0,-0.858667 -0.373333,-1.605333 -0.970667,-2.128zm1.866667,7.093333l-1.194667,0c0.224,-0.373333 0.336,-0.821333 0.336,-1.306667l0,-1.306667l0.896,0c0.709333,0 1.306667,0.597333 1.306667,1.306667c-0.037333,0.709333 -0.634667,1.306667 -1.344,1.306667zm1.232,-10.154667l0,-0.970667c0,-0.709333 0.597333,-1.306667 1.306667,-1.306667c0.709333,0 1.306667,0.597333 1.306667,1.306667l0,3.658667c0,0.149333 -0.037333,0.261333 -0.074667,0.410667c-0.224,-0.037333 -0.448,-0.074667 -0.672,-0.074667l-0.896,0l0,-0.896c0,-0.858667 -0.373333,-1.642667 -0.970667,-2.128zm1.829333,7.056l-0.970667,0c-0.037333,-0.074667 -0.112,-0.112 -0.149333,-0.149333c0.149333,-0.336 0.261333,-0.709333 0.261333,-1.12l0,-1.306667l0.896,0c0.709333,0 1.306667,0.597333 1.306667,1.306667s-0.597333,1.269333 -1.344,1.269333zm1.232,-10.154667l0,-0.970667c0,-0.709333 0.597333,-1.306667 1.306667,-1.306667s1.306667,0.597333 1.306667,1.306667l0,3.658667c0,0.149333 -0.037333,0.261333 -0.074667,0.410667c-0.224,-0.037333 -0.448,-0.074667 -0.672,-0.074667l-0.896,0l0,-0.896c0,-0.858667 -0.373333,-1.605333 -0.970667,-2.128zm1.866667,7.056l-0.970667,0c-0.037333,-0.074667 -0.112,-0.112 -0.149333,-0.149333c0.149333,-0.336 0.261333,-0.709333 0.261333,-1.12l0,-1.306667l0.896,0c0.709333,0 1.306667,0.597333 1.306667,1.306667s-0.634667,1.269333 -1.344,1.269333zm3.098667,-3.061333l-0.970667,0c-0.037333,-0.074667 -0.112,-0.112 -0.149333,-0.149333c0.149333,-0.336 0.261333,-0.709333 0.261333,-1.12l0,-1.306667l0.896,0c0.709333,0 1.306667,0.597333 1.306667,1.306667c-0.074667,0.672 -0.634667,1.269333 -1.344,1.269333z"/>
  </g>
 </g>
</svg>