
<svg width="64" height="64" xmlns="http://www.w3.org/2000/svg">

 <g>
  <title>background</title>
  <rect fill="none" id="canvas_background" height="66" width="66" y="-1" x="-1"/>
 </g>
 <g>
  <title>Layer 1</title>
  <g stroke="null" id="svg_1">
   <path id="svg_2" clip-rule="nonzero" fill="#000000" fill-rule="nonzero" stroke-width="1" stroke-linecap="round" stroke-linejoin="round" stroke-miterlimit="4" stroke-dashoffset="0" d="m48.311354,31.582933a0.936501,0.936516 0 1 0 0,1.872845c1.562702,0 2.809268,1.246566 2.809268,2.809268c0,1.562702 -1.246566,2.809268 -2.809268,2.809268c-1.562702,0 -2.809268,-1.246566 -2.809268,-2.809268a0.936501,0.936516 0 1 0 -1.872845,0c0,2.574787 2.107325,4.682113 4.682113,4.682113c2.574787,0 4.682113,-2.107325 4.682113,-4.682113c0,-2.574787 -2.107325,-4.682113 -4.682113,-4.682113z"/>
   <path id="svg_3" clip-rule="nonzero" fill="#000000" fill-rule="nonzero" stroke-width="1" stroke-linecap="round" stroke-linejoin="round" stroke-miterlimit="4" stroke-dashoffset="0" d="m48.311354,26.432609c-5.419264,0 -9.832249,4.413359 -9.832249,9.832437c0,5.419264 4.412985,9.832437 9.832249,9.832437c5.419077,0 9.832249,-4.413172 9.832249,-9.832437c0,-5.419077 -4.413172,-9.832437 -9.832249,-9.832437zm0,1.872845c4.406992,0 7.959404,3.5526 7.959404,7.959591c0,4.407179 -3.552412,7.959591 -7.959404,7.959591c-4.406992,0 -7.959404,-3.552412 -7.959404,-7.959591c0,-4.406992 3.552412,-7.959591 7.959404,-7.959591z"/>
   <path id="svg_4" clip-rule="nonzero" fill="#000000" fill-rule="evenodd" stroke-width="1px" stroke-miterlimit="4" stroke-dashoffset="0" d="m47.374931,45.109931l0,1.872845l1.872845,0l0,-1.872845l-1.872845,0z"/>
   <path id="svg_5" clip-rule="nonzero" fill="#000000" fill-rule="evenodd" stroke-width="1px" stroke-miterlimit="4" stroke-dashoffset="0" d="m47.374931,25.445058l0,1.872845l1.872845,0l0,-1.872845l-1.872845,0z"/>
   <path id="svg_6" clip-rule="nonzero" fill="#000000" fill-rule="evenodd" stroke-width="1px" stroke-miterlimit="4" stroke-dashoffset="0" d="m52.232717,44.254041l-1.759538,0.640138l0.640138,1.759351l1.763096,-0.640138l-0.643697,-1.759351z"/>
   <path id="svg_7" clip-rule="nonzero" fill="#000000" fill-rule="evenodd" stroke-width="1px" stroke-miterlimit="4" stroke-dashoffset="0" d="m45.50939,25.774304l-1.759351,0.640138l0.640138,1.759351l1.759351,-0.640138l-0.640138,-1.759351z"/>
   <path id="svg_8" clip-rule="nonzero" fill="#000000" fill-rule="evenodd" stroke-width="1px" stroke-miterlimit="4" stroke-dashoffset="0" d="m54.745513,42.425021l-1.43385,1.207049l1.203303,1.43385l1.437596,-1.203303l-1.207049,-1.437596z"/>
   <path id="svg_9" clip-rule="nonzero" fill="#000000" fill-rule="evenodd" stroke-width="1px" stroke-miterlimit="4" stroke-dashoffset="0" d="m42.107555,27.361728l-1.433663,1.20349l1.20349,1.437596l1.433663,-1.207236l-1.20349,-1.43385z"/>
   <path id="svg_10" clip-rule="nonzero" fill="#000000" fill-rule="evenodd" stroke-width="1px" stroke-miterlimit="4" stroke-dashoffset="0" d="m56.482951,39.849859l-0.936423,1.624131l1.624131,0.936423l0.936423,-1.624131l-1.624131,-0.936423z"/>
   <path id="svg_11" clip-rule="nonzero" fill="#000000" fill-rule="evenodd" stroke-width="1px" stroke-miterlimit="4" stroke-dashoffset="0" d="m39.452048,30.017422l-0.932677,1.624131l1.620386,0.936423l0.936423,-1.624131l-1.624131,-0.936423z"/>
   <path id="svg_12" clip-rule="nonzero" fill="#000000" fill-rule="evenodd" stroke-width="1px" stroke-miterlimit="4" stroke-dashoffset="0" d="m57.236397,36.835702l-0.3255,1.843629l1.843629,0.3255l0.3255,-1.843629l-1.843629,-0.3255z"/>
   <path id="svg_13" clip-rule="nonzero" fill="#000000" fill-rule="evenodd" stroke-width="1px" stroke-miterlimit="4" stroke-dashoffset="0" d="m37.868183,33.423004l-0.3255,1.843441l1.847187,0.325688l0.325688,-1.843629l-1.847374,-0.3255z"/>
   <path id="svg_14" clip-rule="nonzero" fill="#000000" fill-rule="evenodd" stroke-width="1px" stroke-miterlimit="4" stroke-dashoffset="0" d="m58.754525,33.423004l-1.843629,0.3255l0.3255,1.843629l1.843629,-0.325688l-0.3255,-1.843441z"/>
   <path id="svg_15" clip-rule="nonzero" fill="#000000" fill-rule="evenodd" stroke-width="1px" stroke-miterlimit="4" stroke-dashoffset="0" d="m39.389869,36.835702l-1.847187,0.3255l0.3255,1.843629l1.843629,-0.3255l-0.321942,-1.843629z"/>
   <path id="svg_16" clip-rule="nonzero" fill="#000000" fill-rule="evenodd" stroke-width="1px" stroke-miterlimit="4" stroke-dashoffset="0" d="m57.17066,30.017422l-1.624131,0.936423l0.936423,1.624131l1.624131,-0.936423l-0.936423,-1.624131z"/>
   <path id="svg_17" clip-rule="nonzero" fill="#000000" fill-rule="evenodd" stroke-width="1px" stroke-miterlimit="4" stroke-dashoffset="0" d="m40.139756,39.849859l-1.624131,0.936423l0.936423,1.624131l1.624131,-0.936423l-0.936423,-1.624131z"/>
   <path id="svg_18" clip-rule="nonzero" fill="#000000" fill-rule="evenodd" stroke-width="1px" stroke-miterlimit="4" stroke-dashoffset="0" d="m54.514966,27.361728l-1.203303,1.43385l1.43385,1.207236l1.207049,-1.437596l-1.437596,-1.20349z"/>
   <path id="svg_19" clip-rule="nonzero" fill="#000000" fill-rule="evenodd" stroke-width="1px" stroke-miterlimit="4" stroke-dashoffset="0" d="m41.877382,42.425021l-1.20349,1.437596l1.433663,1.203303l1.20349,-1.43385l-1.433663,-1.207049z"/>
   <path id="svg_20" clip-rule="nonzero" fill="#000000" fill-rule="evenodd" stroke-width="1px" stroke-miterlimit="4" stroke-dashoffset="0" d="m51.113317,25.774304l-0.640138,1.759351l1.759538,0.640138l0.643697,-1.759351l-1.763096,-0.640138z"/>
   <path id="svg_21" clip-rule="nonzero" fill="#000000" fill-rule="evenodd" stroke-width="1px" stroke-miterlimit="4" stroke-dashoffset="0" d="m44.390178,44.254041l-0.640138,1.759351l1.759351,0.640138l0.640138,-1.759351l-1.759351,-0.640138z"/>
   <path id="svg_22" clip-rule="nonzero" fill="#000000" fill-rule="evenodd" stroke-linecap="round" stroke-linejoin="round" stroke-miterlimit="4" stroke-dashoffset="0" d="m17.892792,9.057664c-1.022948,0 -1.871347,0.851021 -1.872845,1.872845l-0.018728,9.832437a0.936501,0.936516 0 1 0 1.872845,0l0.018728,-9.832437l1.85805,0a0.936501,0.936516 0 1 0 0,-1.872845l-1.85805,0z"/>
   <path id="svg_23" clip-rule="nonzero" fill="#000000" fill-rule="nonzero" stroke-width="1" stroke-linecap="round" stroke-linejoin="round" stroke-miterlimit="4" stroke-dashoffset="0" d="m14.132494,33.40465c-3.867612,0 -7.022982,3.155369 -7.022982,7.023169c0,3.867612 3.155369,7.023169 7.022982,7.023169c3.867612,0 7.022982,-3.155557 7.022982,-7.023169c0,-3.8678 -3.155369,-7.023169 -7.022982,-7.023169zm0,1.872845c2.855527,0 5.150137,2.294797 5.150137,5.150324c0,2.855527 -2.29461,5.150324 -5.150137,5.150324c-2.855527,0 -5.150324,-2.294797 -5.150324,-5.150324c0,-2.855527 2.294797,-5.150324 5.150324,-5.150324z"/>
   <path id="svg_24" clip-rule="nonzero" fill="#000000" fill-rule="nonzero" stroke-linecap="round" stroke-linejoin="round" stroke-miterlimit="4" stroke-dashoffset="0" d="m14.139798,37.618551a0.936501,0.936516 0 1 0 0,1.872845c0.52833,0 0.936423,0.408093 0.936423,0.936423c0,0.52833 -0.408093,0.936423 -0.936423,0.936423c-0.52833,0 -0.936423,-0.408093 -0.936423,-0.936423a0.936501,0.936516 0 1 0 -1.872845,0c0,1.540415 1.268853,2.809268 2.809268,2.809268c1.540415,0 2.809268,-1.268853 2.809268,-2.809268c0,-1.540415 -1.268853,-2.809268 -2.809268,-2.809268z"/>
   <path id="svg_25" clip-rule="nonzero" fill="#000000" fill-rule="evenodd" stroke-width="1px" stroke-miterlimit="4" stroke-dashoffset="0" d="m19.278884,36.682129l0,1.872845l15.450784,0l0,-1.872845l-15.450784,0z"/>
   <path id="svg_26" clip-rule="nonzero" fill="#000000" fill-rule="evenodd" stroke-width="1px" stroke-miterlimit="4" stroke-dashoffset="0" d="m14.128748,20.294734c-1.540228,0 -2.809268,1.268665 -2.809268,2.809268l0,11.23707l1.872845,0l0,-11.23707c0,-0.52833 0.408468,-0.936423 0.936423,-0.936423l19.33544,0c0.183539,2.157705 1.406881,4.106775 3.40914,4.996751l1.221657,0.541252l0.760937,-1.71178l-1.221844,-0.54144c-1.485166,-0.660178 -2.43601,-2.127739 -2.436197,-3.752994l0,-1.404634l-21.069132,0z"/>
   <path id="svg_27" clip-rule="nonzero" fill="#000000" fill-rule="evenodd" stroke-width="1px" stroke-miterlimit="4" stroke-dashoffset="0" d="m37.341539,16.823416l-3.74569,3.74569l1.327847,1.324101l3.74569,-3.74569l-1.327847,-1.324101z"/>
   <path id="svg_28" clip-rule="nonzero" fill="#000000" fill-rule="evenodd" stroke-width="1px" stroke-linecap="round" stroke-linejoin="round" stroke-miterlimit="4" stroke-dashoffset="0" d="m35.655229,15.133361a0.936501,0.936516 0 0 0 -0.654747,1.609523l3.74569,3.74569a0.937599,0.937614 0 1 0 1.327847,-1.324101l-3.74569,-3.74569a0.936501,0.936516 0 0 0 -0.673101,-0.285422z"/>
   <path id="svg_29" clip-rule="nonzero" fill="#000000" fill-rule="evenodd" stroke-width="1px" stroke-miterlimit="4" stroke-dashoffset="0" d="m12.255903,33.40465l0,1.872845l23.410189,0l0,-1.872845l-23.410189,0z"/>
   <path id="svg_30" clip-rule="nonzero" fill="#000000" fill-rule="evenodd" stroke-width="1px" stroke-miterlimit="4" stroke-dashoffset="0" d="m12.724114,23.572213l0,1.872845l3.277479,0l0,-1.872845l-3.277479,0z"/>
   <path id="svg_31" clip-rule="nonzero" fill="#000000" fill-rule="evenodd" stroke-width="1px" stroke-miterlimit="4" stroke-dashoffset="0" d="m12.724114,26.849692l0,1.872845l3.277479,0l0,-1.872845l-3.277479,0z"/>
   <path id="svg_32" clip-rule="nonzero" fill="#000000" fill-rule="evenodd" stroke-width="1px" stroke-miterlimit="4" stroke-dashoffset="0" d="m12.724114,30.127171l0,1.872845l3.277479,0l0,-1.872845l-3.277479,0z"/>
   <path id="svg_33" clip-rule="nonzero" fill="#000000" fill-rule="evenodd" stroke-width="1px" stroke-miterlimit="4" stroke-dashoffset="0" d="m51.17175,14.676199c-1.292263,0 -2.413723,0.93174 -2.651949,2.202091l-1.13382,6.053784l1.839883,0.343854l1.137566,-6.053784c0.074914,-0.396294 0.405284,-0.673101 0.80832,-0.673101l0.413337,0l0,7.49138l1.872845,0l0,-9.364225l-2.286182,0z"/>
   <path id="svg_34" fill="#000000" stroke-linecap="round" stroke-linejoin="round" stroke-miterlimit="4" d="m3.833344,46.514378a0.936408,0.936423 0 0 1 -0.936423,0.936423a0.936408,0.936423 0 0 1 -0.936423,-0.936423a0.936408,0.936423 0 0 1 0.936423,-0.936423a0.936408,0.936423 0 0 1 0.936423,0.936423z"/>
   <path id="svg_35" clip-rule="nonzero" fill="#000000" fill-rule="evenodd" stroke-width="1px" stroke-linecap="round" stroke-linejoin="round" stroke-miterlimit="4" stroke-dashoffset="0" d="m6.187698,45.578143a0.936501,0.936516 0 1 0 0,1.872845l34.164252,0a0.936501,0.936516 0 1 0 0,-1.872845l-34.164252,0z"/>
   <path id="svg_36" clip-rule="nonzero" fill="#000000" fill-rule="evenodd" stroke-width="1px" stroke-linecap="round" stroke-linejoin="round" stroke-miterlimit="4" stroke-dashoffset="0" d="m55.802547,45.578143a0.936501,0.936516 0 1 0 0,1.872845l5.139274,0a0.936501,0.936516 0 1 0 0,-1.872845l-5.139274,0z"/>
   <path id="svg_37" clip-rule="nonzero" fill="#000000" fill-rule="evenodd" stroke-width="1px" stroke-linecap="round" stroke-linejoin="round" stroke-miterlimit="4" stroke-dashoffset="0" d="m45.995956,53.069523a0.936501,0.936516 0 1 0 0,1.872845l12.615859,0a0.936501,0.936516 0 1 0 0,-1.872845l-12.615859,0z"/>
   <path id="svg_38" clip-rule="nonzero" fill="#000000" fill-rule="evenodd" stroke-width="1px" stroke-linecap="round" stroke-linejoin="round" stroke-miterlimit="4" stroke-dashoffset="0" d="m6.670517,53.069523a0.936501,0.936516 0 1 0 0,1.872845l9.803033,0a0.936501,0.936516 0 1 0 0,-1.872845l-9.803033,0z"/>
   <path id="svg_39" clip-rule="nonzero" fill="#000000" fill-rule="evenodd" stroke-width="1px" stroke-linecap="round" stroke-linejoin="round" stroke-miterlimit="4" stroke-dashoffset="0" d="m18.843823,49.323833a0.936501,0.936516 0 1 0 0,1.872845l27.126475,0a0.936501,0.936516 0 1 0 0,-1.872845l-27.126475,0z"/>
   <path id="svg_40" clip-rule="nonzero" fill="#000000" fill-rule="evenodd" stroke-width="1px" stroke-linecap="round" stroke-linejoin="round" stroke-miterlimit="4" stroke-dashoffset="0" d="m4.797672,49.323833a0.936501,0.936516 0 1 0 0,1.872845l6.525554,0a0.936501,0.936516 0 1 0 0,-1.872845l-6.525554,0z"/>
   <path id="svg_41" clip-rule="nonzero" fill="#000000" fill-rule="evenodd" stroke-width="1px" stroke-linecap="round" stroke-linejoin="round" stroke-miterlimit="4" stroke-dashoffset="0" d="m37.56834,53.069523a0.936501,0.936516 0 1 0 0,1.872845l4.656267,0a0.936501,0.936516 0 1 0 0,-1.872845l-4.656267,0z"/>
   <path id="svg_42" clip-rule="nonzero" fill="#000000" fill-rule="evenodd" stroke-width="1px" stroke-linecap="round" stroke-linejoin="round" stroke-miterlimit="4" stroke-dashoffset="0" d="m20.244711,53.069523a0.936501,0.936516 0 1 0 0,1.872845l9.806779,0a0.936501,0.936516 0 1 0 0,-1.872845l-9.806779,0z"/>
   <path id="svg_43" fill="#000000" stroke-linecap="round" stroke-linejoin="round" stroke-miterlimit="4" d="m32.87499,54.005383c0,0.51728 0.41933,0.936984 0.936423,0.936984c0.517093,0 0.936423,-0.419705 0.936423,-0.936984c0,-0.517467 -0.41933,-0.936797 -0.936423,-0.936797c-0.517093,0 -0.936423,0.41933 -0.936423,0.936797z"/>
   <path id="svg_44" clip-rule="nonzero" fill="#000000" fill-rule="evenodd" stroke-width="1px" stroke-linecap="round" stroke-linejoin="round" stroke-miterlimit="4" stroke-dashoffset="0" d="m49.745204,49.323833a0.936501,0.936516 0 1 0 0,1.872845l10.739455,0a0.936501,0.936516 0 1 0 0,-1.872845l-10.739455,0z"/>
   <path id="svg_45" fill="#000000" stroke-linecap="round" stroke-linejoin="round" stroke-miterlimit="4" d="m14.146914,50.260255a0.936408,0.936423 0 0 0 0.936423,0.936423a0.936408,0.936423 0 0 0 0.936423,-0.936423a0.936408,0.936423 0 0 0 -0.936423,-0.936423a0.936408,0.936423 0 0 0 -0.936423,0.936423z"/>
   <path id="svg_46" clip-rule="nonzero" fill="#000000" fill-rule="nonzero" stroke-linecap="round" stroke-linejoin="round" stroke-miterlimit="4" stroke-dashoffset="0" d="m47.232221,22.207846c-1.619636,0.123608 -3.237775,0.532824 -4.784557,1.243569c-6.186756,2.842979 -9.448878,9.730741 -7.725299,16.317912a0.936501,0.936516 0 1 0 1.810667,-0.475515c-1.49659,-5.720043 1.325038,-11.672694 6.697481,-14.141478c5.372631,-2.468784 11.723074,-0.727788 15.088763,4.133556a0.937005,0.93702 0 1 0 1.539853,-1.068084c-2.906843,-4.198731 -7.767625,-6.38097 -12.626909,-6.00996z"/>
  </g>
 </g>
</svg>