<svg xmlns="http://www.w3.org/2000/svg" xmlns:xlink="http://www.w3.org/1999/xlink" width="82" height="82" viewBox="0 0 82 82">
    <defs>
        <path id="a" d="M.895.313h2.512v6.464H.895V.313z"/>
    </defs>
    <g fill="none" fill-rule="evenodd">
        <path fill="#D5A740" fill-opacity=".1" d="M1.747 61.445L41.52 46.918l39.444 14.527-39.609 15.813z"/>
        <path fill="#C49427" d="M0 61.333l40.999 15 41.001-15-40.992-14.827L0 61.333zm2.926.006l38.082-13.77 38.067 13.77-38.076 13.93L2.926 61.34z"/>
        <path fill="#C49427" d="M41 76.333L0 61.271v5l41 15 41-15v-5z"/>
        <g>
            <path fill="#C49427" d="M41.983 33.176c-.008-1.263.64-1.84 1.23-2.585.588-.744 1.273-1.76 1.557-2.798.284-1.038.236-1.42.236-1.42s-.663 1.235-1.904 2.08c-1.24.846-1.466 1.19-1.64 1.596-.172.404-.195.6-.195.6s-.33.032-.23-.296c.099-.329.361-.89.361-.89s-1.153-.912-2.087-1.299c-.934-.387-1.3-.759-1.52-1.02-.222-.26-.397-.409-.397-.409s.22 2.41 1.288 3.388c1.066.98 1.971 1.481 1.941 3.386v30.628s.394.393.726.393c.333 0 .725-.453.725-.453l-.09-30.9z"/>
            <path fill="#C49427" d="M40.946 28.41c.015-.022-.147-1.773-.319-3.294-.097-.85-.892-1.505-1.797-2.03-.905-.524-1.364-.925-1.47-1.33-.03-.109-.064-.194-.208-.168 0 0 .201 2.238.317 3.215.116.977.251 1.387 1.607 2.21 1.227.746 1.462.886 1.605 1.116.096.154.077.24.151.276.074.036.114.004.114.004M40.749 23.777c.015-.02-.121-1.774-.271-3.297-.083-.85-.87-1.518-1.766-2.057-.897-.537-1.35-.945-1.451-1.35-.027-.11-.06-.196-.204-.173 0 0 .168 2.241.269 3.22.102.978.23 1.391 1.574 2.234 1.216.763 1.449.907 1.589 1.14.093.155.073.24.146.278.073.037.114.005.114.005M40.746 19.422c.016-.02-.086-1.776-.207-3.302-.067-.852-.839-1.534-1.726-2.09-.886-.555-1.33-.972-1.424-1.379-.025-.11-.057-.196-.2-.176 0 0 .123 2.243.205 3.224.083.98.204 1.395 1.531 2.265 1.2.786 1.43.935 1.566 1.17.09.156.068.242.141.28.073.04.114.008.114.008M41.498 17.73c-.016-.019.002-1.03.08-2.488.043-.815.646-1.726 1.69-2.218.55-.258 1.808-.82 1.89-1.213.021-.106.05-.19.194-.179 0 0 .043 1.128-.163 2.297-.177 1.008-.44 1.582-1.924 2.225-1.31.568-1.393 1.055-1.52 1.286-.087.155-.062.235-.134.276-.07.041-.113.014-.113.014M41.432 21.728c-.016-.019.002-1.031.08-2.488.043-.815.646-1.726 1.69-2.218.55-.258 1.808-.82 1.89-1.213.021-.106.05-.189.194-.179 0 0 .043 1.128-.163 2.297-.177 1.008-.44 1.583-1.924 2.225-1.31.568-1.393 1.055-1.52 1.286-.087.155-.062.235-.134.276-.07.041-.113.014-.113.014M41.483 25.867c-.015-.02 0-1.031.076-2.49.041-.813.643-1.726 1.687-2.22.547-.26 1.805-.822 1.886-1.215.022-.106.05-.19.195-.18 0 0 .044 1.128-.16 2.297-.175 1.008-.438 1.584-1.92 2.228-1.31.57-1.39 1.059-1.519 1.29-.086.155-.06.234-.132.276-.07.04-.112.014-.112.014M37.553 7.92s.007 1.473.166 2.704c.157 1.232.264 2.048 1.341 2.785 0 0 .672.41.973.713.301.302.464.478.504.599.04.12.112.193.161.196l.05.003s.052-2.767-.675-3.953c-.728-1.187-1.52-1.526-1.846-2.225-.232-.5-.344-.671-.403-.74-.116-.133-.27-.082-.27-.082M37.952 3.273s-.072 1.471.018 2.71c.09 1.237.153 2.06 1.189 2.852 0 0 .648.446.932.765.285.32.438.503.47.626.035.123.102.2.15.205l.05.005s.204-2.759-.458-3.984c-.662-1.224-1.282-1.69-1.723-2.322-.238-.34-.307-.689-.361-.759-.11-.14-.267-.098-.267-.098M44.492 2.33s.073 1.471-.018 2.709-.153 2.06-1.188 2.853c0 0-.65.446-.933.765-.284.319-.438.503-.471.626-.034.123-.101.199-.15.205l-.05.005s-.202-2.759.459-3.984c.662-1.224 1.286-1.688 1.723-2.322.279-.405.307-.689.36-.759.11-.14.268-.098.268-.098M45.246 7.086s-.37 2.626-.427 3.09c-.057.465-.485 1.699-1.183 2.14-.698.443-1.465.777-1.63.926-.3.27-.315.425-.404.443l-.087.017s.077-1.957.341-2.765c.264-.807.827-1.721 1.357-2.221.53-.501 1.058-.64 1.348-1.026.29-.387.395-.611.491-.657.095-.045.176-.035.176-.035l.018.088z"/>
            <g transform="translate(39 -.313)">
                <mask id="b" fill="#fff">
                    <use xlink:href="#a"/>
                </mask>
                <path fill="#C49427" d="M2.151 6.758c.005.09-.24-.176-.24-.176s-.479-1.136-.741-1.607C.907 4.504.832 3.823.948 3.357c.116-.466.459-1.257.753-1.77.294-.513.52-1.274.52-1.274s.086-.007.126.085c.04.092.117.732.545 1.449.238.399.867 1.494.256 2.856 0 0-1.027 1.532-.997 2.055" mask="url(#b)"/>
            </g>
            <path fill="#C49427" d="M41.64 28.92s-.227-1.622.523-2.655c.75-1.033 1.075-.945 1.673-1.334.598-.388.81-.534.89-.656.08-.123.15-.142.15-.142s.227 1.346-.275 2.136-.715 1.11-1.527 1.546c-.812.434-.8.342-.987.53-.187.19-.256.473-.326.492-.07.019-.12.083-.12.083M51.613 28.945s-.468 2.665.396 4.034c.864 1.368 1.585 2.377 1.441 4.502-.144 2.124-1.117 7.058-1.369 10.01-.252 2.954-.594 5.679-.594 5.679s.486-2.125.774-2.81c.29-.684.468-1.152.468-1.152s.541-2.256 1.045-5.39c.504-3.132.612-5.365 1.26-6.698.65-1.332.873-1.678 1.727-2.31.854-.63 1.892-1.524 2.502-2.561.61-1.037.671-1.465.671-1.465s-1.078 1.14-2.664 1.688c-1.587.55-1.932.855-2.238 1.24-.304.387-.386.59-.386.59s-.366-.06-.162-.386c.203-.325.65-.854.65-.854s-.976-1.322-1.87-2.013c-.896-.692-1.18-1.2-1.343-1.546-.162-.346-.308-.558-.308-.558"/>
            <path fill="#C49427" d="M55.338 31.68c.021-.022.181-1.98.285-3.689.058-.954-.692-1.83-1.586-2.583-.895-.752-1.324-1.283-1.363-1.749-.011-.126-.033-.226-.195-.226 0 0-.212 2.504-.273 3.602-.061 1.1.008 1.577 1.342 2.746 1.207 1.057 1.439 1.257 1.553 1.54.075.186.038.277.112.332.075.054.125.026.125.026M56.354 26.67c.02-.02.27-1.97.454-3.671.102-.951-.606-1.86-1.465-2.653-.86-.793-1.263-1.343-1.281-1.81-.005-.126-.022-.227-.185-.235 0 0-.326 2.492-.438 3.586-.111 1.094-.064 1.575 1.214 2.804 1.158 1.112 1.38 1.323 1.48 1.609.068.19.025.28.097.338.072.057.124.032.124.032M57.532 22c.022-.02.354-1.957.608-3.648.142-.946-.527-1.885-1.353-2.713-.824-.828-1.205-1.394-1.203-1.862.001-.126-.012-.228-.174-.242 0 0-.43 2.475-.589 3.564-.157 1.088-.13 1.57 1.095 2.853 1.11 1.159 1.323 1.379 1.411 1.669.06.193.014.28.083.342.07.06.122.037.122.037M58.68 20.431c-.011-.025.306-1.112.816-2.662.285-.866 1.202-1.673 2.474-1.898.668-.117 2.19-.354 2.393-.755.055-.108.11-.189.263-.136 0 0-.284 1.23-.85 2.431-.485 1.035-.94 1.58-2.727 1.837-1.581.23-1.812.73-2.02.943-.136.141-.133.235-.222.258-.09.024-.126-.018-.126-.018M57.438 24.726c-.012-.025.305-1.113.815-2.662.285-.866 1.203-1.674 2.474-1.898.668-.117 2.19-.355 2.393-.756.055-.108.111-.189.263-.136 0 0-.284 1.23-.848 2.431-.487 1.036-.94 1.58-2.728 1.838-1.582.227-1.813.73-2.019.942-.138.142-.135.236-.224.259-.089.023-.126-.018-.126-.018M56.324 29.5c-.013-.023.264-1.121.718-2.688.253-.876 1.14-1.716 2.403-1.986.664-.142 2.177-.434 2.365-.842.05-.11.103-.193.258-.145 0 0-.24 1.239-.76 2.46-.45 1.052-.882 1.61-2.66 1.934-1.572.286-1.785.796-1.984 1.016-.132.146-.126.239-.214.266-.087.027-.126-.014-.126-.014M57.9 9.186s-.508 1.566-.771 2.928c-.265 1.363-.438 2.268.447 3.427 0 0 .569.671.782 1.099.214.426.326.671.326.813 0 .142.05.244.102.264l.05.021s1.028-2.919.672-4.434c-.357-1.515-1.08-2.154-1.18-3.01-.072-.61-.13-.833-.169-.925-.075-.183-.258-.183-.258-.183M60.972 4.6s-1.281 2.674-1.515 3.142c-.234.468-.6 1.88-.224 2.725.376.843.884 1.63.946 1.871.11.438.03.59.1.66l.072.072s1.14-1.87 1.393-2.786c.255-.915.295-2.116.112-2.909-.182-.793-.59-1.25-.62-1.79-.03-.537.01-.813-.051-.915a.396.396 0 0 0-.142-.141l-.071.07zM65.843 10.043s-1.168 2.726-1.366 3.21c-.198.484-1.02 1.69-1.904 1.963-.882.273-1.808.408-2.03.521-.403.203-.464.365-.565.36l-.1-.008s.658-2.089 1.18-2.883c.52-.794 1.396-1.616 2.114-2 .717-.385 1.33-.38 1.755-.712.425-.332.605-.544.722-.565a.397.397 0 0 1 .201.013l-.007.101zM62.426 6.745s-.102-1.046-.163-1.647c-.061-.6.163-1.332.488-1.76.325-.426 1.027-1.087 1.556-1.485.529-.395 1.098-1.077 1.098-1.077s.092.03.092.143c0 .111-.204.804-.082 1.728.069.515.305 2.106-.874 2.736-1.18.63-1.688.843-1.851.976-.162.133-.061.386-.162.386h-.102zM62.629 7.477s.092.671.071 1.505c-.02.835-.092 1.343-.193 1.475-.102.132-.244.223-.254.355l-.01.133s.62-.223 1.291-.58c.671-.356 1.495-.763 2.024-1.688.529-.925.691-1.931.762-2.257.072-.325.163-.6.163-.6s-.061-.204-.183-.163c-.122.042-.376.356-.681.498-.305.143-1.068.234-1.485.366-.417.133-1.505.956-1.505.956M55.555 32.547s.23-1.817 1.342-2.712c1.112-.894 1.438-.705 2.197-.95.759-.243 1.03-.338 1.152-.446.122-.11.204-.11.204-.11s-.15 1.52-.922 2.225c-.773.705-1.098.99-2.102 1.22-1.003.23-.962.136-1.22.285-.257.149-.414.434-.495.434-.082 0-.156.054-.156.054M52.191 62.655c.47-1.008 1.208-6.9 4.132-14.937 2.937-8.073 8.04-12.164 8.04-12.164-11.069 6.534-13.65 23.716-13.65 23.716l-.216 4.914s.087.24.72.24c.634 0 .721-.24.721-.24M50.533 56.29l.549-2.362.405-8.84s-.99-3.014-1.56-8.84c-.66-6.724.023-15.553.023-15.553s-1.803 9.48-1.511 16.8c.193 4.819 1.302 8.386 1.302 8.386.419 4.617.792 10.408.792 10.408M32.435 28.945s.468 2.665-.396 4.034c-.865 1.368-1.585 2.377-1.44 4.502.143 2.124 1.116 7.058 1.368 10.01.252 2.954.594 6.498.594 6.498s-.416-1.43-.704-2.113c-.288-.685-.539-1.848-.539-1.848s-.54-3.076-1.044-6.21c-.504-3.132-.612-5.365-1.26-6.698-.649-1.332-.873-1.678-1.727-2.31-.854-.63-1.892-1.524-2.502-2.561-.61-1.037-.67-1.465-.67-1.465s1.077 1.14 2.663 1.688c1.586.55 1.932.855 2.237 1.24.305.387.387.59.387.59s.366-.06.162-.386c-.203-.325-.65-.854-.65-.854s.976-1.322 1.871-2.013c.895-.692 1.18-1.2 1.342-1.546.162-.346.308-.558.308-.558"/>
            <path fill="#C49427" d="M28.71 31.68c-.02-.022-.18-1.98-.285-3.689-.058-.954.692-1.83 1.587-2.583.895-.752 1.323-1.283 1.363-1.749.01-.126.032-.226.194-.226 0 0 .212 2.504.273 3.602.061 1.1-.008 1.577-1.342 2.746-1.207 1.057-1.439 1.257-1.553 1.54-.075.186-.037.277-.112.332-.074.054-.125.026-.125.026M27.695 26.67c-.021-.02-.272-1.97-.455-3.671-.101-.951.607-1.86 1.466-2.653.86-.793 1.263-1.343 1.28-1.81.006-.126.023-.227.186-.235 0 0 .326 2.492.438 3.586.11 1.094.064 1.575-1.215 2.804-1.157 1.112-1.38 1.323-1.48 1.609-.067.19-.025.28-.096.338-.072.057-.124.032-.124.032M26.516 22c-.022-.02-.354-1.957-.608-3.648-.142-.946.527-1.885 1.353-2.713.825-.828 1.205-1.394 1.203-1.862 0-.126.012-.228.175-.242 0 0 .43 2.475.588 3.564.158 1.088.13 1.57-1.095 2.853-1.11 1.159-1.323 1.379-1.411 1.669-.06.193-.013.28-.082.342-.07.06-.123.037-.123.037M25.368 20.431c.012-.025-.305-1.112-.815-2.662-.285-.866-1.203-1.673-2.474-1.898-.668-.117-2.19-.354-2.393-.755-.055-.108-.111-.189-.263-.136 0 0 .284 1.23.848 2.431.487 1.035.94 1.58 2.728 1.837 1.582.23 1.813.73 2.019.943.138.141.135.235.224.258.089.024.126-.018.126-.018M26.61 24.726c.012-.025-.305-1.113-.814-2.662-.285-.866-1.203-1.674-2.474-1.898-.668-.117-2.191-.355-2.394-.756-.054-.108-.11-.189-.262-.136 0 0 .284 1.23.848 2.431.486 1.036.94 1.58 2.727 1.838 1.582.227 1.814.73 2.02.942.137.142.134.236.224.259.088.023.125-.018.125-.018M27.725 29.5c.013-.023-.264-1.121-.718-2.688-.254-.876-1.141-1.716-2.404-1.986-.663-.142-2.176-.434-2.364-.842-.051-.11-.104-.193-.258-.145 0 0 .24 1.239.76 2.46.448 1.052.882 1.61 2.66 1.934 1.572.286 1.785.796 1.984 1.016.132.146.125.239.214.266.087.027.126-.014.126-.014M26.148 9.186s.509 1.566.773 2.928c.265 1.363.437 2.268-.447 3.427 0 0-.57.671-.784 1.099-.213.426-.325.671-.325.813 0 .142-.05.244-.101.264l-.052.021s-1.026-2.919-.67-4.434c.356-1.515 1.079-2.154 1.179-3.01.07-.61.13-.833.168-.925.076-.183.259-.183.259-.183M23.077 4.6s1.28 2.674 1.515 3.142c.234.468.6 1.88.224 2.725-.376.843-.884 1.63-.946 1.871-.112.438-.03.59-.102.66l-.071.072s-1.14-1.87-1.393-2.786c-.254-.915-.295-2.116-.112-2.909.183-.793.59-1.25.62-1.79.03-.537-.01-.813.052-.915a.396.396 0 0 1 .142-.141l.07.07zM18.205 10.043s1.168 2.726 1.367 3.21c.197.484 1.02 1.69 1.903 1.963.883.273 1.808.408 2.03.521.403.203.464.365.565.36l.1-.008s-.657-2.089-1.178-2.883c-.522-.794-1.398-1.616-2.115-2-.717-.385-1.33-.38-1.755-.712-.426-.332-.606-.544-.723-.565-.116-.02-.2.013-.2.013l.006.101zM21.623 6.745s.102-1.046.163-1.647c.06-.6-.163-1.332-.488-1.76-.326-.426-1.028-1.087-1.556-1.485-.53-.395-1.098-1.077-1.098-1.077s-.092.03-.092.143c0 .111.203.804.08 1.728-.067.515-.303 2.106.876 2.736 1.179.63 1.688.843 1.85.976.163.133.062.386.163.386h.102zM21.42 7.477s-.093.671-.072 1.505c.02.835.091 1.343.194 1.475.101.132.243.223.253.355l.01.133s-.62-.223-1.29-.58c-.672-.356-1.496-.763-2.025-1.688-.529-.925-.69-1.931-.762-2.257-.072-.325-.163-.6-.163-.6s.061-.204.183-.163c.122.042.376.356.681.498.305.143 1.068.234 1.485.366.417.133 1.505.956 1.505.956M28.493 32.547s-.23-1.817-1.342-2.712c-1.112-.894-1.437-.705-2.197-.95-.759-.243-1.03-.338-1.152-.446-.122-.11-.204-.11-.204-.11s.15 1.52.922 2.225c.773.705 1.098.99 2.102 1.22 1.003.23.963.136 1.22.285.258.149.414.434.496.434.081 0 .155.054.155.054M31.857 64.11c-.47-1.009-.395-1.802-2.267-9.365-1.873-7.563-6.05-15.752-12.821-25.22C9.998 20.054 5 18.968 5 18.968s1.799-.234 4.836 1.62c3.56 2.17 5.276 3.422 12.56 14.082 7.283 10.66 10.94 26.053 10.94 26.053l.215 3.34s-.086.24-.72.24c-.633 0-.72-.24-.72-.24l-.254.045zM33.912 58.852l-.72-3.098v-5.74s1.008-6.483 1.224-11.309c.216-4.826 0-11.145 0-11.145s1.08 3.654 1.153 9.56c.072 5.907-.361 11.165-.865 15.775-.504 4.61-.792 5.956-.792 5.956"/>
        </g>
    </g>
</svg>
