<svg xmlns="http://www.w3.org/2000/svg" xmlns:xlink="http://www.w3.org/1999/xlink" width="82" height="82" viewBox="0 0 82 82">
    <defs>
        <path id="a" d="M.987.729h57.308V63H.987V.729z"/>
    </defs>
    <g fill="none" fill-rule="evenodd">
        <path fill="#239546" fill-opacity=".1" d="M1.747 61.445L41.52 46.918l39.444 14.527-39.609 15.813z"/>
        <path fill="#239546" d="M0 61.333l40.999 15 41.001-15-40.992-14.827L0 61.333zm2.926.006l38.082-13.77 38.067 13.77-38.076 13.93L2.926 61.34z"/>
        <path fill="#239546" d="M41 76.333L0 61.271v5l41 15 41-15v-5z"/>
        <g transform="translate(11 2.27)">
            <mask id="b" fill="#fff">
                <use xlink:href="#a"/>
            </mask>
            <path fill="#239546" d="M30.93 46.61c.278-3.09 1.186-3.451 4.908-4.584 3.722-1.133 15.644-5.233 19.258-12.893 3.56-7.544 3.884-14.134 2.266-20.121-1.619-5.988-3.237-7.283-3.237-7.283s.162 3.399-3.074 6.312c-3.237 2.913-11.167 7.282-14.889 13.108-3.722 5.826-5.34 11.814-5.988 15.05-.279 1.397-.409 1.977-.533 3.353.635.24.38-1.312 6.067-6.312 2.752-2.42 8.251-4.727 10.516-8.368C48.49 21.23 49 19.75 49 19.75s-.51 3.018-2.452 6.012c-1.664 2.566-3.475 4.102-6.548 5.988-7.023 4.31-8.417 10.03-10.635 10.03-1.31 0-1.658-1.202-2.539-2.167-1.206-1.322-2.508-2.098-5.629-3.552-3.28-1.53-4.857-1.854-8.016-4.878-3.802-3.642-4.288-6.311-4.288-6.311s2.346 3.236 3.56 4.53c1.594 1.7 3.035 2.91 4.936 3.885 3.318 1.699 6.403 1.953 8.611 3.463 1.476 1.01 1.955 1.64 2.31 1.495 0 0-2.799-8.54-5.58-11.755-5.179-5.988-13.595-8.74-16.184-10.52-2.589-1.78-3.398-4.693-3.398-4.693s-4.13 7.03-.97 15.698c2.318 6.366 5.663 8.63 10.194 10.68 2.638 1.195 8.524 2.483 11.652 3.993 3.005 1.45 4.36 2.456 4.351 6.498-.009 4.059.02 7.046.02 8.988 0 .109-.002.218-.004.324 0 0 .482.417 1.25.417s1.556-.584 1.556-.584c-.208-2.891-.433-8.853-.268-10.68z" mask="url(#b)"/>
        </g>
    </g>
</svg>
