<svg xmlns="http://www.w3.org/2000/svg" width="82" height="82" viewBox="0 0 82 82">
    <g fill="#439CE5" fill-rule="evenodd">
        <path fill-opacity=".1" d="M1.747 61.445L30.84 50.82l10.515 6.438 11.068-6.323 28.54 10.511-39.608 15.813z"/>
        <path d="M0 61.57l41 15 41-15L52.856 51.03C47.597 54.639 43.645 56.44 41 56.43c-2.645-.01-6.517-1.838-11.616-5.485L0 61.57zm2.925.006l27.003-9.764c4.808 3.92 8.498 5.885 11.072 5.894 2.574.01 6.345-1.927 11.313-5.81l26.762 9.68L41 75.505 2.925 61.576z"/>
        <path d="M41 76.57L0 61.508v5l41 15 41-15v-5zM41 57.924c-8.685 0-15.726-7.72-15.726-17.246C25.274 34.328 30.516 23.77 41 9c10.484 14.77 15.726 25.328 15.726 31.678 0 9.525-7.04 17.246-15.726 17.246zm8.6-6.876c4.242-3.802 4.311-9.68 4.311-9.68s-1.724 5.244-5.306 8.57c-4.162 3.866-8.33 5.098-8.33 5.098s3.886.886 9.326-3.988z"/>
    </g>
</svg>
