<svg xmlns="http://www.w3.org/2000/svg" width="82" height="82" viewBox="0 0 82 82">
    <defs>
        <path id="a" d="M2.325 2.049c-1.16.915-2.071.982-2.071.982s1.227.158 2.236-.683C3.695 1.343 3.678.392 3.678.392s-.485.972-1.353 1.657z"/>
        <path id="b" d="M3.041 2.069c-1.16.915-2.071.982-2.071.982s1.226.159 2.235-.683C4.411 1.363 4.393.412 4.393.412s-.485.973-1.352 1.657z"/>
        <path id="c" d="M2.858 2.069c-1.161.915-2.071.982-2.071.982s1.226.159 2.235-.683C4.228 1.363 4.21.412 4.21.412s-.484.973-1.352 1.657z"/>
        <path id="d" d="M2.292 2.613c-1.16.915-2.071.981-2.071.981s1.227.159 2.236-.683C3.662 1.906 3.645.955 3.645.955s-.485.973-1.353 1.658z"/>
        <path id="e" d="M2.988 2.613c-1.161.915-2.071.981-2.071.981s1.225.159 2.234-.683C4.356 1.906 4.339.955 4.339.955s-.484.973-1.351 1.658z"/>
    </defs>
    <g fill="none" fill-rule="evenodd">
        <g fill="#6243A1">
            <path d="M44.532 47.447a3.766 3.766 0 1 1-7.532 0 3.766 3.766 0 0 1 7.532 0zm-2.126 2.029c-1.16.915-2.071.98-2.071.98s1.226.16 2.236-.682c1.205-1.005 1.188-1.956 1.188-1.956s-.486.973-1.353 1.658zM44.532 14.447a3.766 3.766 0 1 1-7.532 0 3.766 3.766 0 0 1 7.532 0zm-2.126 2.029c-1.16.915-2.071.98-2.071.98s1.226.16 2.236-.682c1.205-1.005 1.188-1.956 1.188-1.956s-.486.973-1.353 1.658zM54.167 31.447a3.766 3.766 0 1 1-7.532 0 3.766 3.766 0 0 1 7.532 0zm-2.126 2.029c-1.16.915-2.071.98-2.071.98s1.226.16 2.236-.682c1.205-1.005 1.188-1.956 1.188-1.956s-.486.973-1.353 1.658zM34.985 31.447a3.766 3.766 0 1 1-7.532 0 3.766 3.766 0 0 1 7.532 0zm-2.127 2.029c-1.16.915-2.07.98-2.07.98s1.225.16 2.235-.682c1.205-1.005 1.188-1.956 1.188-1.956s-.486.973-1.353 1.658zM64.114 47.447a3.766 3.766 0 1 1-7.532 0 3.766 3.766 0 0 1 7.532 0zm-2.127 2.029c-1.16.915-2.07.98-2.07.98s1.225.16 2.235-.682c1.205-1.005 1.188-1.956 1.188-1.956s-.486.973-1.353 1.658zM25.419 47.447a3.766 3.766 0 1 1-7.532 0 3.766 3.766 0 0 1 7.532 0zm-2.126 2.029c-1.16.915-2.071.98-2.071.98s1.226.16 2.236-.682c1.205-1.005 1.188-1.956 1.188-1.956s-.486.973-1.353 1.658z"/>
        </g>
        <path fill="#6243A1" fill-opacity=".1" d="M1.747 61.445L41.52 46.918l39.444 14.527-39.609 15.813z"/>
        <path fill="#6243A1" d="M0 61.333l40.999 15 41.001-15-40.992-14.827L0 61.333zm2.926.006l38.082-13.77 38.067 13.77-38.076 13.93L2.926 61.34z"/>
        <path fill="#6243A1" d="M41 76.333L0 61.271v5l41 15 41-15v-5z"/>
    </g>
</svg>
