<svg xmlns="http://www.w3.org/2000/svg" xmlns:xlink="http://www.w3.org/1999/xlink" width="82" height="82" viewBox="0 0 82 82">
    <defs>
        <path id="a" d="M.672.422H4.08v60.4H.672V.422z"/>
        <path id="c" d="M.344.422H3.75v60.4H.345V.422z"/>
        <path id="e" d="M.015.422h3.408v60.4H.015V.422z"/>
        <path id="g" d="M.687.422h3.408v60.4H.687V.422z"/>
        <path id="i" d="M.672.422H4.08v60.4H.672V.422z"/>
        <path id="k" d="M.344.422H3.75v60.4H.345V.422z"/>
        <path id="m" d="M.015.422h3.408v60.4H.015V.422z"/>
        <path id="o" d="M.687.422h3.408v60.4H.687V.422z"/>
    </defs>
    <g fill="none" fill-rule="evenodd">
        <g fill="#CB6921">
            <path fill-opacity=".1" d="M2 61.527L41.773 47l39.444 14.527L41.61 77.34z"/>
            <path d="M0 61.333l40.999 15 41.001-15-40.992-14.827L0 61.333zm2.926.006l38.082-13.77 38.067 13.77-38.076 13.93L2.926 61.34z"/>
            <path d="M41 76.333L0 61.271v5l41 15 41-15v-5z"/>
        </g>
        <path fill="#CB6921" d="M44.455 43.97c.519 6.912-.392 16.87-.392 16.87s-.021.628.725.72c.92.112 1.097-.313 1.097-.313s.25-8.112-.405-16.906M50.126 43.954c.52 6.912-.392 16.87-.392 16.87s-.02.628.725.719c.921.112 1.098-.312 1.098-.312s.25-8.113-.406-16.906M61.47 43.92c.519 6.913-.393 16.87-.393 16.87s-.02.628.726.72c.92.112 1.097-.312 1.097-.312s.25-8.113-.405-16.906M55.798 43.937c.519 6.912-.392 16.87-.392 16.87s-.021.628.725.72c.921.112 1.097-.313 1.097-.313s.25-8.113-.405-16.906"/>
        <g transform="translate(19 .578)">
            <mask id="b" fill="#fff">
                <use xlink:href="#a"/>
            </mask>
            <path fill="#CB6921" d="M.672.422C3.257 20.38 2.257 59.614 2.257 59.614s-.02 1.028.726 1.177c.92.185 1.097-.511 1.097-.511s-.39-23.541-.534-36.107C3.314 3.966.672.422.672.422" mask="url(#b)"/>
        </g>
        <g transform="translate(25 .578)">
            <mask id="d" fill="#fff">
                <use xlink:href="#c"/>
            </mask>
            <path fill="#CB6921" d="M.344.422C2.929 20.38 1.929 59.614 1.929 59.614s-.02 1.028.726 1.177c.92.185 1.097-.511 1.097-.511s-.39-23.541-.534-36.107C2.984 3.966.343.422.343.422" mask="url(#d)"/>
        </g>
        <g transform="translate(31 .578)">
            <mask id="f" fill="#fff">
                <use xlink:href="#e"/>
            </mask>
            <path fill="#CB6921" d="M.015.422C2.6 20.38 1.6 59.614 1.6 59.614s-.02 1.028.726 1.177c.92.185 1.097-.511 1.097-.511s-.39-23.541-.534-36.107C2.657 3.966.015.422.015.422" mask="url(#f)"/>
        </g>
        <g transform="translate(36 .578)">
            <mask id="h" fill="#fff">
                <use xlink:href="#g"/>
            </mask>
            <path fill="#CB6921" d="M.687.422C3.272 20.38 2.272 59.614 2.272 59.614s-.02 1.028.726 1.177c.92.185 1.097-.511 1.097-.511s-.39-23.541-.534-36.107C3.329 3.966.687.422.687.422" mask="url(#h)"/>
        </g>
        <g>
            <path fill="#CB6921" d="M41.455 43.97c.519 6.912-.392 16.87-.392 16.87s-.021.628.725.72c.92.112 1.097-.313 1.097-.313s.25-8.112-.405-16.906M47.126 43.954c.52 6.912-.392 16.87-.392 16.87s-.02.628.725.719c.921.112 1.098-.312 1.098-.312s.25-8.113-.406-16.906M58.47 43.92c.519 6.913-.393 16.87-.393 16.87s-.02.628.726.72c.92.112 1.097-.312 1.097-.312s.25-8.113-.405-16.906M52.798 43.937c.519 6.912-.392 16.87-.392 16.87s-.021.628.725.72c.921.112 1.097-.313 1.097-.313s.25-8.113-.405-16.906"/>
            <g transform="translate(16 .578)">
                <mask id="j" fill="#fff">
                    <use xlink:href="#i"/>
                </mask>
                <path fill="#CB6921" d="M.672.422C3.257 20.38 2.257 59.614 2.257 59.614s-.02 1.028.726 1.177c.92.185 1.097-.511 1.097-.511s-.39-23.541-.534-36.107C3.314 3.966.672.422.672.422" mask="url(#j)"/>
            </g>
            <g transform="translate(22 .578)">
                <mask id="l" fill="#fff">
                    <use xlink:href="#k"/>
                </mask>
                <path fill="#CB6921" d="M.344.422C2.929 20.38 1.929 59.614 1.929 59.614s-.02 1.028.726 1.177c.92.185 1.097-.511 1.097-.511s-.39-23.541-.534-36.107C2.984 3.966.343.422.343.422" mask="url(#l)"/>
            </g>
            <g transform="translate(28 .578)">
                <mask id="n" fill="#fff">
                    <use xlink:href="#m"/>
                </mask>
                <path fill="#CB6921" d="M.015.422C2.6 20.38 1.6 59.614 1.6 59.614s-.02 1.028.726 1.177c.92.185 1.097-.511 1.097-.511s-.39-23.541-.534-36.107C2.657 3.966.015.422.015.422" mask="url(#n)"/>
            </g>
            <g transform="translate(33 .578)">
                <mask id="p" fill="#fff">
                    <use xlink:href="#o"/>
                </mask>
                <path fill="#CB6921" d="M.687.422C3.272 20.38 2.272 59.614 2.272 59.614s-.02 1.028.726 1.177c.92.185 1.097-.511 1.097-.511s-.39-23.541-.534-36.107C3.329 3.966.687.422.687.422" mask="url(#p)"/>
            </g>
        </g>
    </g>
</svg>
