<svg xmlns="http://www.w3.org/2000/svg" width="82" height="82" viewBox="0 0 82 82">
    <g fill="none" fill-rule="evenodd">
        <path fill="#513B25" d="M56.823 54.34l-5.415.795-8.998-.795-5.744 3.75-3.639-1.335-6.826-.498-1.21-3.04-.742-.303L0 61.682l41 15 41-15-24.408-8.83-.769 1.488zM2.926 61.689l21.295-7.701 1.052 2.64.855.627 6.448.469 3.373 1.064.95.273c1.225-2.095 3.82-3.339 7.787-3.731 5.89-.53 5.397 1.104 5.781 1.123.256.012 2.423-.363 6.501-1.123l.743-.53.366-.707 20.998 7.595L41 75.618 2.926 61.688z"/>
        <path fill="#513B25" d="M41 76.682L0 61.62v5l41 15 41-15v-5z"/>
        <path d="M41.687 34.371a2.014 2.014 0 1 0-4.029.001 2.014 2.014 0 0 0 4.029 0"/>
        <path fill="#513B25" d="M44.69 55.34l-.64-1.828c-1.224-3.517-1.61-4.24-1.61-4.24s-.987 1.222-.065 4.836c.139.546.297 1.01.466 1.405-3.316.452-5.408 1.6-6.277 3.442-.033.011-.671-.475-1.85-1.152-.186-.106-.484.103-.668 0-.54-.3-.951-.891-1.362-1.074l-5.857.028c-1.448-.644-1.878-3.954-2.938-5.132l-4.993-2.215c-1.06-1.178.221-4.366-.269-5.873l-3.988-4.065c-.49-1.507 2.331-2.918 2.497-4.495l-2.344-6.315c.166-1.576 3.907-2.442 4.7-3.815l-.163-5.998c.792-1.372 3.513-1.63 4.796-2.561l3.34-4.558c1.282-.932 4.297.254 5.847-.075l4.481-3.12c1.55-.33 2.921 1.77 4.471 2.099l6.263-.817c1.551.33 1.564 2.87 2.846 3.8l6.44 1.738c1.282.93.621 3.487 1.413 4.859l4.817 3.976c.792 1.373-.899 3.165-.734 4.74l2.832 5.866c.165 1.576-2.656 3.15-3.146 4.657l.748 5.885c-.49 1.507-3.928 2.282-4.989 3.46l-1.489 5.196c-1.06 1.177-4.444.99-5.892 1.636l-.956.79c0 .169-.996-1.333-5.727-1.08zm-3.003-20.969a2.014 2.014 0 1 0-4.029.001 2.014 2.014 0 0 0 4.029 0zm4.465-18.279c-1.418 3.443-1.61 4.24-1.61 4.24s1.549-.258 3.259-3.573c1.943-3.769.039-4.79.039-4.79s-.644 1.586-1.688 4.123zm7.197 4.944c-2.558 2.706-3.023 3.382-3.023 3.382s1.54.314 4.323-2.168c3.165-2.823 1.753-4.458 1.753-4.458s-1.169 1.25-3.053 3.244zm4.717 6.908c-3.314 1.7-3.977 2.181-3.977 2.181s1.347.81 4.798-.603c3.925-1.606 3.139-3.618 3.139-3.618s-1.52.79-3.96 2.04zM24.35 23.032c2.561 2.703 3.21 3.204 3.21 3.204s.4-1.519-1.926-4.435c-2.643-3.317-4.354-1.997-4.354-1.997s1.184 1.237 3.07 3.228zm6.123-5.979c1.422 3.441 1.848 4.141 1.848 4.141s.917-1.275-.208-4.83c-1.28-4.044-3.35-3.425-3.35-3.425s.662 1.58 1.71 4.114zm8.428-2.029c.193 3.718.362 4.521.362 4.521s1.29-.897 1.414-4.625c.141-4.239-2.017-4.345-2.017-4.345s.098 1.71.241 4.45zm19.973 20.238c-3.702-.405-4.521-.368-4.521-.368s.679 1.417 4.338 2.137c4.161.82 4.612-1.293 4.612-1.293s-1.703-.178-4.429-.476zm-2.75 8.288c-3.31-1.705-4.088-1.963-4.088-1.963s.126 1.566 3.283 3.55c3.592 2.256 4.77.445 4.77.445s-1.526-.776-3.965-2.032zM50.8 50c-2.553-2.71-3.2-3.214-3.2-3.214s-.404 1.518 1.913 4.442c2.633 3.323 4.348 2.01 4.348 2.01s-1.18-1.24-3.06-3.238zM36.297 51.94c.923-3.608 1-4.424 1-4.424s-1.497.472-2.726 3.993c-1.399 4.004.63 4.75.63 4.75s.415-1.662 1.095-4.319zm-7.286-2.6c2.229-2.983 2.612-3.707 2.612-3.707s-1.564-.135-4.043 2.652c-2.82 3.169-1.228 4.63-1.228 4.63s1.018-1.377 2.659-3.574zm-4.421-5.2c3.162-1.967 3.783-2.501 3.783-2.501s-1.41-.696-4.732.997c-3.78 1.924-2.83 3.865-2.83 3.865s1.45-.912 3.779-2.36zm-2.61-7.24c3.668-.65 4.443-.915 4.443-.915s-1.048-1.17-4.763-.836c-4.224.38-4.065 2.534-4.065 2.534s1.685-.307 4.385-.784zm-.024-6.967c3.61.915 4.426.99 4.426.99s-.476-1.496-4-2.717c-4.007-1.388-4.747.642-4.747.642s1.662.412 4.32 1.085z"/>
        <path fill="#513B25" d="M37.06 60.243s1.306-3.986 7.951-3.986c5.843 0 5.774 2.148 7.026 2.171 2.051.04 1.82 1.507 1.824 1.815l.005.308s-1.217 1.5-5.192 1.583c-3.975.083-10.383 0-14.595 0-4.213 0-17.78.534-18.755.047-1.125-.562.743-1.324 2.31-1.4 3.07-.153 6.655-1.818 10.738-1.383 1.83.195 6.44-.68 6.44-.68l2.248 1.525z"/>
        <path fill="#513B25" fill-opacity=".1" d="M1 61.617l23.228-8.483c.084 2.05.398 3.216.942 3.497.321.167 3.025-.792 6.564.34 1.125.36 1.08-.28 3.467 1.057.716.4 2.307-.54 4.773-2.82 6.733.224 10.936.348 12.609.374 1.672.025 3.084-.836 4.236-2.582l23.398 8.617L40.61 77.43 1 61.617z"/>
    </g>
</svg>
